#N canvas 328 455 501 439 10;
#X floatatom 130 45 5 0 127 2 RootPitch-(MIDI-Number) - -;
#X floatatom 119 168 5 1 127 0 - - -;
#X obj 73 247 noteout;
#X obj 73 205 makenote 100 100;
#X text 107 150 velocity;
#X floatatom 187 55 5 1 240 1 BPM - -;
#X text 180 204 duration;
#X obj 243 84 bng 15 250 50 0 empty empty Play 0 -6 0 10 -262144 -1
-1;
#X text 70 333 NOTE :: Make sure all .heuristic and .m files are present
in extra/bluejam/config/ under the PD working directory - check the
main window to see where that is.;
#X text 70 1 BlueJam - Heuristic Edit Mode;
#X text 69 280 USAGE :: Hit the above bang to play the file. You can
specify a different file by editing the arguments to the pdj object
(hit Ctrl+E to enter edit mode). The file will automatically reload
each time the button is pressed.;
#X text 71 381 This patch is intended to help the user design and edit
heuristic files \, so no evolution parameters are available No other
inlets can be used in this mode.;
#X obj 74 124 pdj net.parallaxed.bluejam.pd.Configure blues-9.heuristic
;
#X connect 0 0 12 1;
#X connect 1 0 3 1;
#X connect 3 0 2 0;
#X connect 3 1 2 1;
#X connect 5 0 12 2;
#X connect 7 0 12 3;
#X connect 12 0 3 0;
#X connect 12 1 3 2;
